<svg xmlns="http://www.w3.org/2000/svg" viewBox="0 0 192.5 192.5"><defs><style>.cls-1{fill:#fff;}</style></defs><g id="Layer_2" data-name="Layer 2"><g id="team"><path class="cls-1" d="M139.14,104.78H53.37a8.53,8.53,0,1,1,0-17.06h85.77a8.53,8.53,0,0,1,0,17.06Z"/><path class="cls-1" d="M110.55,133.37a8.53,8.53,0,0,1-6-14.56l22.56-22.56L104.52,73.69a8.53,8.53,0,1,1,12.06-12.06l28.59,28.59a8.53,8.53,0,0,1,0,12.06l-28.59,28.59A8.5,8.5,0,0,1,110.55,133.37Z"/><path class="cls-1" d="M96.25,192.5A96.25,96.25,0,1,1,192.5,96.25,96.36,96.36,0,0,1,96.25,192.5Zm0-175.44a79.2,79.2,0,1,0,79.2,79.19A79.27,79.27,0,0,0,96.25,17.06Z"/></g></g></svg>