<svg xmlns="http://www.w3.org/2000/svg" viewBox="0 0 293.64 317.27"><defs><style>.cls-1{fill:#fcfcfc;}</style></defs><g id="Layer_2" data-name="Layer 2"><g id="Layer_1-2" data-name="Layer 1"><path class="cls-1" d="M76.69,144.39a73.89,73.89,0,0,1-19.93,6c-7.7-15.6-7.7-39.48-9.4-60.91-4.88,14.85-9.58,29.7-14.1,44.74-1.5,7-8.83,7.71-13.16,11.66-2.25-1.32-4.32-2.26-5.83-4.14-7.7-19-7.33-46.81-7.89-72.56.19-13,0-27.45,2.82-38.73,5.83-1.7,11.65-3.2,17.48-5.08,3.2,25.76,3.39,54.15,4.52,81.78,5.45-16.73,12.22-32.33,16.73-50,3.57-2.63,7.33-6.76,11.65-7.89,9.78,8.27,9.59,27.63,12,43.05C79.89,59.6,92.67,31.21,107,4c3.2-1.51,6.58-2.63,10-3.95a4.91,4.91,0,0,1,1.51,3c0,1.88-2.45,3.19-4.89,5.83C94.93,46.62,85.72,94,76.5,141c0,.75.19,1.51.19,2.07Z"/><path class="cls-1" d="M140.42,34.78C140.05,60,137.79,82,135,105.47c-1.88,12.6-3,27.26-10.53,34.59l-2.82,2.82-2.44.94c-7.9-.75-8.27-9.4-8.27-17.67,1.88-33.46,4.7-66.36,11.65-95.32,4.14-2.07,8.65-3.95,12-3.95S140.42,29,140.42,34.78Z"/><path class="cls-1" d="M174.45,133.86c-6.77,0-7.33,1.13-21.62,9.4-4-1.88-7.52-5.08-7.52-10,2.82-35.72,8.08-69.74,15.79-100.95l1.32-6c0-1.69,3-2.44,8.46-2.44a16,16,0,0,1,2.82-.19c5.26,0,4.7,2.82,5.26,9v2.45c-.94,30.08-5.26,57.34-9.78,84.41a30.84,30.84,0,0,1,6-.56c7,0,13.91,1.88,19.37,2.82h.18c6.58,1.31,14.67,2.25,18.05,7.33L211.49,131c-4.7,1.31-10.53,3-16.74,3h-5.83C181.59,134.05,177.46,133.86,174.45,133.86Z"/><path class="cls-1" d="M222.2,35.16c0-5.83,2.07-12.22,5.08-15.8,7.52-3.94,11.84-10.9,22.18-11.09,8.08,0,15.42,5.83,21.24,12.22,13.73,15.23,22.94,37.23,22.94,63.92,0,21.06-8.08,38.54-19.93,48.7-11.28,5.64-17.29,16-33.84,16a46.94,46.94,0,0,1-10-1.32c-2.26.75-4.89,1.69-7,1.69-2.25,0-3.76-.94-3.76-3.76a5.14,5.14,0,0,1,.19-1.69c-5.08-4.14-11.28-7.9-11.47-16.92,0-3.76,3.2-4.51,4.51-7.52l2.26-.75c.56.75,3.57,1.13,4.51,1.13a8,8,0,0,0,.94-.19c.38.19.94.56,1.69.94,5.83-30.83,10.91-62.79,21.81-89.3,1.69-.76,3.57-1.88,5.27-2.82-4.52-3.95-7.34-5.83-9.22-5.83-3.94,0-3.57,8.27-8.83,19.17l-6.58,2.26c-1.51-1.88-1.88-4.89-2.07-7.9Zm47.56,58.09v-.19c0-2.44.19-4.7.19-7.14-.37-17.3-5.83-35.91-13.53-48.13-4.14,31.21-9.59,61.85-16,91.18a33.27,33.27,0,0,0,4.51.38C258.3,129.35,267.32,119,269.76,93.25Z"/><path class="cls-1" d="M44.93,213.71c6.72,0,13.57.54,16.44,4.79-.82,3.56-3.42,5.07-6,6.85a24.35,24.35,0,0,1-8.09,1c-4.93,0-9.31-.28-14.38-.28H29.59c.14,1.65.14,3.16.14,4.8-.14,6.85-.82,14.11-1.51,20.55h.27c7.13.55,16.31-.55,19.87,3.42,0,1.1-1.1,2.88-1.65,4l-1.23,1.37c-2.19,3.83-6.85,4.93-12.19,4.93a57.32,57.32,0,0,1-6.58-.41c-1,8.08-2.05,15.75-3.42,23.7-2.06,8.76-2.19,20-10.55,22.74l-1.92.27h-.27c-.55,0-1.1.14-1.51.14-2.88-.28-3.15-4.25-3.15-7.67v-2.33c0-13.15,2.47-25.21,4.25-37.4-2.88-.14-6,0-8.77-.28L0,258.64c3.42-2.74,6.71-5.07,12.06-5.89,1.5-8.63,2.87-17.81,5.06-26-1.91.14-3.69.41-5.48.68l-3.28-.68H6.85c-1.37.14-1.78-1.64-2.06-2.47C14.25,215.08,28.22,213.71,44.93,213.71Z"/><path class="cls-1" d="M92.47,310.83c-5.75-7.39-4.79-22.33-5.34-34.38a157.25,157.25,0,0,1-16-.82c-4.11,8.9-7.53,19.17-13.7,26.3H54.11c3-9.32,6.44-17.95,9.87-27-2.33-.27-5.48-.41-7.81-1.23l4.24-8.09c2.06-1.23,5.07-1.36,8-1.64,3.56-9,6.71-18.22,10.55-27.12,4.25-10,4.52-19.59,18.22-21.24,8.22,5.89,6.16,22.2,6.85,35.48,0,0,0,10.55-.14,15.76a13,13,0,0,1,2.47,3.42l-1.24,1.78c-.41.14-.95.41-1.37.55-.68,12.06.55,26.17-3.42,35.35a6.11,6.11,0,0,1-5.21,3.83A4.35,4.35,0,0,1,92.47,310.83ZM87.4,264c.28-10.27.55-20.27,1.1-30.41-4.93,9.45-8.5,20-12.6,30.14C80.55,263.71,83.29,263.84,87.4,264Z"/><path class="cls-1" d="M127.82,277.54c1.64,15.62,6.3,21.79,11.78,21.79,11,0,23.29-23.29,23.29-45.62,0-1.1-.14-2.33-.14-3.43-.55-9.72-1.1-18.63-1.92-27.67a1,1,0,0,0,.69.14c5.2-1.1,9.72-3.57,14.24-5.76a101.68,101.68,0,0,1,.69,11.37c-1.1,29.32-3.84,57-18.49,73.84-9.18,6-9.32,9-18.77,9h-.28c-21.92,0-28.77-19.72-28.77-41.64a128.4,128.4,0,0,1,8.91-45.89c3.7-1.24,7.53-2.33,11.23-3.43h.28a10.57,10.57,0,0,1,.82,4.38v1.65c-1.1,14-4,27.81-4,42.74A82.29,82.29,0,0,0,127.82,277.54Z"/><path class="cls-1" d="M181.52,301.24a681.24,681.24,0,0,1,4.93-82.06c2.47-1.78,5.07-4.38,8-5.47a21.78,21.78,0,0,1,3.7,2.73c11.23,16.58,15.2,39.6,21.64,60.42,1.37-14.93,3.15-28.22,6.71-41.78,2.74-8.91,4.93-19.05,13.43-22.47a6.81,6.81,0,0,1,.27,1.51l.41,3.28a607.55,607.55,0,0,0-11.78,88.78,26.63,26.63,0,0,0,.41,5.89c-3.83,2.33-8.22,3.42-12.19,5.2a13.94,13.94,0,0,1-1.92-2.19c-9.59-21.23-15.07-46-21.78-70.28-.68,21.92-.14,44.94-5.34,62.88l-6,1.24a18.45,18.45,0,0,1-.27-4c0-.82-.14-1.5-.14-2.33Z"/><path class="cls-1" d="M276.18,310.83c-5.75-7.39-4.79-22.33-5.34-34.38a157.25,157.25,0,0,1-16-.82c-4.11,8.9-7.53,19.17-13.7,26.3h-3.28c3-9.32,6.43-17.95,9.86-27-2.33-.27-5.48-.41-7.81-1.23l4.25-8.09c2.05-1.23,5.07-1.36,7.94-1.64,3.57-9,6.72-18.22,10.55-27.12,4.25-10,4.52-19.59,18.22-21.24,8.22,5.89,6.17,22.2,6.85,35.48,0,0,0,10.55-.14,15.76a12.78,12.78,0,0,1,2.47,3.42l-1.23,1.78c-.41.14-1,.41-1.37.55-.69,12.06.55,26.17-3.43,35.35a6.11,6.11,0,0,1-5.2,3.83A4.37,4.37,0,0,1,276.18,310.83ZM271.12,264c.27-10.27.54-20.27,1.09-30.41-4.93,9.45-8.49,20-12.6,30.14C264.27,263.71,267,263.84,271.12,264Z"/></g></g></svg>