<svg xmlns="http://www.w3.org/2000/svg" viewBox="0 0 58.91 58.91"><g id="Layer_2" data-name="Layer 2"><g id="Newsletter"><path d="M43.91,18.52A6.11,6.11,0,0,0,40.39,15,10,10,0,0,0,37,14.36c-2-.09-2.54-.11-7.5-.11s-5.53,0-7.49.11a10,10,0,0,0-3.44.64A6,6,0,0,0,15,18.52,10,10,0,0,0,14.36,22c-.09,2-.11,2.54-.11,7.49s0,5.54.11,7.5A10,10,0,0,0,15,40.39a6.11,6.11,0,0,0,3.52,3.52,10,10,0,0,0,3.44.64c2,.09,2.54.11,7.49.11s5.54,0,7.5-.11a10,10,0,0,0,3.44-.64,6.18,6.18,0,0,0,3.52-3.52A10,10,0,0,0,44.55,37c.09-2,.11-2.54.11-7.5s0-5.53-.11-7.49A10,10,0,0,0,43.91,18.52ZM29.45,39A9.53,9.53,0,1,1,39,29.45,9.53,9.53,0,0,1,29.45,39Zm9.9-17.2a2.23,2.23,0,1,1,2.23-2.22A2.23,2.23,0,0,1,39.35,21.78Z"/><path d="M29.45,23.27a6.19,6.19,0,1,0,6.19,6.18A6.18,6.18,0,0,0,29.45,23.27Z"/><path d="M29.45,0A29.46,29.46,0,1,0,58.91,29.45,29.46,29.46,0,0,0,29.45,0ZM47.89,37.1A13.53,13.53,0,0,1,47,41.6,9.47,9.47,0,0,1,41.6,47a13.59,13.59,0,0,1-4.5.86c-2,.09-2.61.11-7.65.11s-5.66,0-7.64-.11a13.53,13.53,0,0,1-4.5-.86,9.47,9.47,0,0,1-5.43-5.43A13.53,13.53,0,0,1,11,37.1c-.09-2-.11-2.61-.11-7.65s0-5.66.11-7.64a13.53,13.53,0,0,1,.86-4.5,9.47,9.47,0,0,1,5.43-5.43,13.53,13.53,0,0,1,4.5-.86c2-.09,2.61-.11,7.64-.11s5.67,0,7.65.11a13.59,13.59,0,0,1,4.5.86A9.47,9.47,0,0,1,47,17.31a13.53,13.53,0,0,1,.86,4.5c.09,2,.11,2.61.11,7.64S48,35.12,47.89,37.1Z"/></g></g></svg>