<svg xmlns="http://www.w3.org/2000/svg" viewBox="0 0 58.91 58.91"><g id="Layer_2" data-name="Layer 2"><g id="Newsletter"><path d="M29.45,0A29.46,29.46,0,1,0,58.91,29.45,29.46,29.46,0,0,0,29.45,0ZM45.64,26.08a14.08,14.08,0,0,1-3.24-.39,15.59,15.59,0,0,1-5.11-2.2c-.08,0-.17-.17-.25-.13s-.06.2-.06.3c0,4.22,0,8.45,0,12.67a12.08,12.08,0,0,1-10.68,12,12,12,0,0,1-6.88-1.22,5.69,5.69,0,0,1-1-.61l-.3-.26h0a2.74,2.74,0,0,1-.62-.43A11.94,11.94,0,0,1,13.43,40a11.84,11.84,0,0,1-.53-4.4,11.72,11.72,0,0,1,1-4.11,12,12,0,0,1,10.07-7,12.52,12.52,0,0,1,2.37.06c.11,0,.17,0,.17.16,0,.44,0,.88,0,1.31,0,0,.06,3.34.06,4.86V31c0,.16-.09.21-.23.17a5.59,5.59,0,0,0-1.28-.2,4.8,4.8,0,0,0-1.95.29,5.41,5.41,0,0,0-1.22,9.65c.15.11.31.2.45.32l.1.1a8.1,8.1,0,0,0,1.29.42,5.52,5.52,0,0,0,6.55-4.5,5,5,0,0,0,.07-.94V10.83c0-.4-.06-.35.33-.35h6c.2,0,.21,0,.2.21a12.42,12.42,0,0,0,.21,1.6C38,16.58,43,19.2,44.49,19.43a7,7,0,0,0,1.29.11c.17,0,.18,0,.18.18,0,.4.08,4.5.08,6C46,26.06,46,26.08,45.64,26.08Z"/></g></g></svg>