<svg xmlns="http://www.w3.org/2000/svg" viewBox="0 0 58.91 58.91"><defs><style>.cls-1{fill-rule:evenodd;}</style></defs><g id="Layer_2" data-name="Layer 2"><g id="Newsletter"><path class="cls-1" d="M29.45,0A29.46,29.46,0,1,0,58.91,29.45,29.46,29.46,0,0,0,29.45,0ZM45.73,23.15q0,.51,0,1c0,10.33-7.87,22.25-22.26,22.25a22.25,22.25,0,0,1-12-3.51,16.61,16.61,0,0,0,1.87.1,15.72,15.72,0,0,0,9.71-3.34,7.83,7.83,0,0,1-7.3-5.44,7.91,7.91,0,0,0,3.53-.13A7.83,7.83,0,0,1,13,26.43a.34.34,0,0,1,0-.1,7.71,7.71,0,0,0,3.54,1,7.82,7.82,0,0,1-3.48-6.51,7.71,7.71,0,0,1,1.06-3.93A22.21,22.21,0,0,0,30.29,25a7.47,7.47,0,0,1-.2-1.78,7.82,7.82,0,0,1,13.53-5.35,15.52,15.52,0,0,0,5-1.9,7.81,7.81,0,0,1-3.44,4.33,15.47,15.47,0,0,0,4.5-1.24A15.85,15.85,0,0,1,45.73,23.15Z"/></g></g></svg>